<svg xmlns="http://www.w3.org/2000/svg" xmlns:xlink="http://www.w3.org/1999/xlink" x="0" y="0" width="702" height="312" style="
        width:702px;
        height:312px;
        background: transparent;
        fill: none;
">
        <svg xmlns="http://www.w3.org/2000/svg"/>
        
        <svg xmlns="http://www.w3.org/2000/svg" class="role-diagram-draw-area" style="overflow: visible;"><g class="shapes-region" style="stroke: black; fill: none;"><g class="composite-shape" data-amt="diagram/shapes/plot" transform="matrix(1,0,0,1,129.33333333333337,23.307291666666657)"><g><g><g class="test-xgi"><line x1="57.388754489166075" y1="0" x2="57.388754489166075" y2="267" fill="none" stroke="#c3c3c3" stroke-width="0.5"/><line x1="134.4997532120758" y1="0" x2="134.4997532120758" y2="267" fill="none" stroke="#c3c3c3" stroke-width="0.5"/><line x1="211.6107519349856" y1="0" x2="211.6107519349856" y2="267" fill="none" stroke="#c3c3c3" stroke-width="0.5"/><line x1="288.7217506578953" y1="0" x2="288.7217506578953" y2="267" fill="none" stroke="#c3c3c3" stroke-width="0.5"/><line x1="365.832749380805" y1="0" x2="365.832749380805" y2="267" fill="none" stroke="#c3c3c3" stroke-width="0.5"/></g><g class="test-ygi"><line x1="0" y1="255.4461325966851" x2="431.5" y2="255.4461325966851" fill="none" stroke="#c3c3c3" stroke-width="0.5"/><line x1="0" y1="178.33513387377536" x2="431.5" y2="178.33513387377536" fill="none" stroke="#c3c3c3" stroke-width="0.5"/><line x1="0" y1="101.22413515086564" x2="431.5" y2="101.22413515086564" fill="none" stroke="#c3c3c3" stroke-width="0.5"/><line x1="0" y1="24.11313642795588" x2="431.5" y2="24.11313642795588" fill="none" stroke="#c3c3c3" stroke-width="0.5"/></g></g><g><g class="test-xti" style="font-family: Asana-Math, Asana;"><line x1="0" y1="255.4461325966851" x2="427.5" y2="255.4461325966851" fill="none" stroke="rgb(50,50,50)" stroke-opacity="1" stroke-width="1"/><line x1="57.388754489166075" y1="251.4461325966851" x2="57.388754489166075" y2="259.44613259668506" fill="none" stroke="rgb(50,50,50)" stroke-opacity="1" stroke-width="1"/><line x1="134.4997532120758" y1="251.4461325966851" x2="134.4997532120758" y2="259.44613259668506" fill="none" stroke="rgb(50,50,50)" stroke-opacity="1" stroke-width="1"/><line x1="288.7217506578953" y1="251.4461325966851" x2="288.7217506578953" y2="259.44613259668506" fill="none" stroke="rgb(50,50,50)" stroke-opacity="1" stroke-width="1"/><line x1="365.832749380805" y1="251.4461325966851" x2="365.832749380805" y2="259.44613259668506" fill="none" stroke="rgb(50,50,50)" stroke-opacity="1" stroke-width="1"/><path d="M422.5,251.8461325966851 L430.5,255.4461325966851 L422.5,259.0461325966851 Z" stroke="none" stroke-width="1" fill="rgb(50,50,50)" fill-opacity="1"/></g><g class="test-yti" style="font-family: Asana-Math, Asana;"><line x1="211.61075193498556" y1="4" x2="211.61075193498556" y2="267" fill="none" stroke="rgb(50,50,50)" stroke-opacity="1" stroke-width="1"/><line x1="207.61075193498556" y1="178.33513387377536" x2="215.61075193498556" y2="178.33513387377536" fill="none" stroke="rgb(50,50,50)" stroke-opacity="1" stroke-width="1"/><line x1="207.61075193498556" y1="101.22413515086564" x2="215.61075193498556" y2="101.22413515086564" fill="none" stroke="rgb(50,50,50)" stroke-opacity="1" stroke-width="1"/><line x1="207.61075193498556" y1="24.11313642795588" x2="215.61075193498556" y2="24.11313642795588" fill="none" stroke="rgb(50,50,50)" stroke-opacity="1" stroke-width="1"/><path d="M208.01075193498556,9 L211.61075193498556,1 L215.21075193498555,9 Z" stroke="none" stroke-width="1" fill="rgb(50,50,50)" fill-opacity="1"/></g><g class="test-plot-expression"><defs><clipPath id="cpn03j3j14wdg-full-view"><rect x="1" y="1" width="429.5" height="265"/></clipPath></defs><g clip-path="url(#cpn03j3j14wdg-full-view)"><path d=" M0.00,255.43 L0.50,255.43 L1.00,255.43 L1.50,255.43 L2.00,255.43 L2.50,255.43 L3.00,255.43 L3.50,255.42 L4.00,255.42 L4.51,255.42 L5.01,255.42 L5.51,255.42 L6.01,255.42 L6.51,255.42 L7.01,255.42 L7.51,255.42 L8.01,255.41 L8.51,255.41 L9.01,255.41 L9.51,255.41 L10.01,255.41 L10.51,255.41 L11.01,255.40 L11.51,255.40 L12.01,255.40 L12.51,255.40 L13.02,255.40 L13.52,255.40 L14.02,255.39 L14.52,255.39 L15.02,255.39 L15.52,255.39 L16.02,255.38 L16.52,255.38 L17.02,255.38 L17.52,255.38 L18.02,255.37 L18.52,255.37 L19.02,255.37 L19.52,255.36 L20.02,255.36 L20.52,255.36 L21.02,255.35 L21.52,255.35 L22.03,255.34 L22.53,255.34 L23.03,255.34 L23.53,255.33 L24.03,255.33 L24.53,255.32 L25.03,255.32 L25.53,255.31 L26.03,255.31 L26.53,255.30 L27.03,255.30 L27.53,255.29 L28.03,255.28 L28.53,255.28 L29.03,255.27 L29.53,255.26 L30.03,255.26 L30.54,255.25 L31.04,255.24 L31.54,255.23 L32.04,255.22 L32.54,255.22 L33.04,255.21 L33.54,255.20 L34.04,255.19 L34.54,255.18 L35.04,255.17 L35.54,255.16 L36.04,255.15 L36.54,255.14 L37.04,255.12 L37.54,255.11 L38.04,255.10 L38.54,255.09 L39.05,255.07 L39.55,255.06 L40.05,255.05 L40.55,255.03 L41.05,255.02 L41.55,255.00 L42.05,254.98 L42.55,254.97 L43.05,254.95 L43.55,254.93 L44.05,254.91 L44.55,254.90 L45.05,254.88 L45.55,254.86 L46.05,254.83 L46.55,254.81 L47.05,254.79 L47.56,254.77 L48.06,254.74 L48.56,254.72 L49.06,254.69 L49.56,254.67 L50.06,254.64 L50.56,254.61 L51.06,254.58 L51.56,254.55 L52.06,254.52 L52.56,254.49 L53.06,254.46 L53.56,254.43 L54.06,254.39 L54.56,254.36 L55.06,254.32 L55.56,254.28 L56.06,254.24 L56.57,254.20 L57.07,254.16 L57.57,254.12 L58.07,254.08 L58.57,254.03 L59.07,253.99 L59.57,253.94 L60.07,253.89 L60.57,253.84 L61.07,253.79 L61.57,253.73 L62.07,253.68 L62.57,253.62 L63.07,253.56 L63.57,253.50 L64.07,253.44 L64.57,253.38 L65.08,253.31 L65.58,253.25 L66.08,253.18 L66.58,253.11 L67.08,253.04 L67.58,252.96 L68.08,252.89 L68.58,252.81 L69.08,252.73 L69.58,252.64 L70.08,252.56 L70.58,252.47 L71.08,252.38 L71.58,252.29 L72.08,252.20 L72.58,252.10 L73.08,252.00 L73.59,251.90 L74.09,251.80 L74.59,251.69 L75.09,251.58 L75.59,251.47 L76.09,251.35 L76.59,251.23 L77.09,251.11 L77.59,250.99 L78.09,250.86 L78.59,250.73 L79.09,250.60 L79.59,250.46 L80.09,250.32 L80.59,250.18 L81.09,250.03 L81.59,249.88 L82.10,249.72 L82.60,249.57 L83.10,249.40 L83.60,249.24 L84.10,249.07 L84.60,248.90 L85.10,248.72 L85.60,248.54 L86.10,248.35 L86.60,248.16 L87.10,247.97 L87.60,247.77 L88.10,247.57 L88.60,247.36 L89.10,247.15 L89.60,246.93 L90.10,246.71 L90.60,246.49 L91.11,246.26 L91.61,246.02 L92.11,245.78 L92.61,245.54 L93.11,245.28 L93.61,245.03 L94.11,244.77 L94.61,244.50 L95.11,244.23 L95.61,243.95 L96.11,243.67 L96.61,243.38 L97.11,243.08 L97.61,242.78 L98.11,242.47 L98.61,242.16 L99.11,241.84 L99.62,241.52 L100.12,241.19 L100.62,240.85 L101.12,240.50 L101.62,240.15 L102.12,239.80 L102.62,239.43 L103.12,239.06 L103.62,238.68 L104.12,238.30 L104.62,237.91 L105.12,237.51 L105.62,237.10 L106.12,236.69 L106.62,236.27 L107.12,235.84 L107.62,235.41 L108.13,234.97 L108.63,234.52 L109.13,234.06 L109.63,233.59 L110.13,233.12 L110.63,232.64 L111.13,232.15 L111.63,231.66 L112.13,231.15 L112.63,230.64 L113.13,230.12 L113.63,229.59 L114.13,229.05 L114.63,228.50 L115.13,227.95 L115.63,227.39 L116.13,226.82 L116.64,226.24 L117.14,225.65 L117.64,225.05 L118.14,224.45 L118.64,223.83 L119.14,223.21 L119.64,222.58 L120.14,221.94 L120.64,221.29 L121.14,220.63 L121.64,219.96 L122.14,219.29 L122.64,218.60 L123.14,217.91 L123.64,217.20 L124.14,216.49 L124.64,215.77 L125.15,215.04 L125.65,214.30 L126.15,213.55 L126.65,212.79 L127.15,212.02 L127.65,211.25 L128.15,210.46 L128.65,209.67 L129.15,208.86 L129.65,208.05 L130.15,207.23 L130.65,206.39 L131.15,205.55 L131.65,204.71 L132.15,203.85 L132.65,202.98 L133.15,202.10 L133.65,201.22 L134.16,200.32 L134.66,199.42 L135.16,198.51 L135.66,197.59 L136.16,196.66 L136.66,195.72 L137.16,194.77 L137.66,193.82 L138.16,192.86 L138.66,191.88 L139.16,190.90 L139.66,189.92 L140.16,188.92 L140.66,187.92 L141.16,186.90 L141.66,185.88 L142.16,184.86 L142.67,183.82 L143.17,182.78 L143.67,181.73 L144.17,180.67 L144.67,179.60 L145.17,178.53 L145.67,177.45 L146.17,176.37 L146.67,175.27 L147.17,174.17 L147.67,173.07 L148.17,171.96 L148.67,170.84 L149.17,169.72 L149.67,168.59 L150.17,167.45 L150.67,166.31 L151.18,165.17 L151.68,164.01 L152.18,162.86 L152.68,161.70 L153.18,160.53 L153.68,159.36 L154.18,158.19 L154.68,157.01 L155.18,155.83 L155.68,154.65 L156.18,153.46 L156.68,152.27 L157.18,151.07 L157.68,149.88 L158.18,148.68 L158.68,147.48 L159.18,146.27 L159.69,145.07 L160.19,143.86 L160.69,142.65 L161.19,141.44 L161.69,140.23 L162.19,139.02 L162.69,137.81 L163.19,136.60 L163.69,135.39 L164.19,134.18 L164.69,132.97 L165.19,131.76 L165.69,130.55 L166.19,129.34 L166.69,128.14 L167.19,126.94 L167.69,125.74 L168.19,124.54 L168.70,123.34 L169.20,122.15 L169.70,120.96 L170.20,119.78 L170.70,118.60 L171.20,117.42 L171.70,116.25 L172.20,115.08 L172.70,113.92 L173.20,112.77 L173.70,111.62 L174.20,110.47 L174.70,109.33 L175.20,108.20 L175.70,107.08 L176.20,105.96 L176.70,104.85 L177.21,103.75 L177.71,102.65 L178.21,101.57 L178.71,100.49 L179.21,99.42 L179.71,98.36 L180.21,97.31 L180.71,96.27 L181.21,95.24 L181.71,94.22 L182.21,93.21 L182.71,92.21 L183.21,91.23 L183.71,90.25 L184.21,89.29 L184.71,88.33 L185.21,87.39 L185.72,86.47 L186.22,85.55 L186.72,84.65 L187.22,83.76 L187.72,82.89 L188.22,82.03 L188.72,81.18 L189.22,80.35 L189.72,79.53 L190.22,78.73 L190.72,77.94 L191.22,77.17 L191.72,76.41 L192.22,75.67 L192.72,74.94 L193.22,74.23 L193.72,73.54 L194.23,72.86 L194.73,72.20 L195.23,71.56 L195.73,70.94 L196.23,70.33 L196.73,69.74 L197.23,69.16 L197.73,68.61 L198.23,68.07 L198.73,67.55 L199.23,67.05 L199.73,66.57 L200.23,66.11 L200.73,65.67 L201.23,65.24 L201.73,64.83 L202.23,64.45 L202.73,64.08 L203.24,63.73 L203.74,63.40 L204.24,63.10 L204.74,62.81 L205.24,62.54 L205.74,62.29 L206.24,62.06 L206.74,61.85 L207.24,61.66 L207.74,61.50 L208.24,61.35 L208.74,61.22 L209.24,61.11 L209.74,61.03 L210.24,60.96 L210.74,60.92 L211.24,60.89 L211.75,60.89 L212.25,60.90 L212.75,60.94 L213.25,60.99 L213.75,61.07 L214.25,61.17 L214.75,61.29 L215.25,61.43 L215.75,61.58 L216.25,61.76 L216.75,61.96 L217.25,62.18 L217.75,62.42 L218.25,62.68 L218.75,62.96 L219.25,63.26 L219.75,63.58 L220.26,63.92 L220.76,64.28 L221.26,64.65 L221.76,65.05 L222.26,65.47 L222.76,65.90 L223.26,66.36 L223.76,66.83 L224.26,67.32 L224.76,67.83 L225.26,68.36 L225.76,68.91 L226.26,69.47 L226.76,70.05 L227.26,70.65 L227.76,71.27 L228.26,71.90 L228.77,72.56 L229.27,73.22 L229.77,73.91 L230.27,74.61 L230.77,75.33 L231.27,76.06 L231.77,76.81 L232.27,77.58 L232.77,78.36 L233.27,79.16 L233.77,79.97 L234.27,80.79 L234.77,81.63 L235.27,82.49 L235.77,83.36 L236.27,84.24 L236.77,85.13 L237.27,86.04 L237.78,86.96 L238.28,87.90 L238.78,88.84 L239.28,89.80 L239.78,90.77 L240.28,91.76 L240.78,92.75 L241.28,93.75 L241.78,94.77 L242.28,95.79 L242.78,96.83 L243.28,97.87 L243.78,98.93 L244.28,99.99 L244.78,101.07 L245.28,102.15 L245.78,103.24 L246.29,104.34 L246.79,105.45 L247.29,106.56 L247.79,107.68 L248.29,108.81 L248.79,109.94 L249.29,111.09 L249.79,112.23 L250.29,113.39 L250.79,114.55 L251.29,115.71 L251.79,116.88 L252.29,118.05 L252.79,119.23 L253.29,120.42 L253.79,121.60 L254.29,122.79 L254.80,123.99 L255.30,125.18 L255.80,126.38 L256.30,127.58 L256.80,128.79 L257.30,129.99 L257.80,131.20 L258.30,132.41 L258.80,133.62 L259.30,134.83 L259.80,136.04 L260.30,137.25 L260.80,138.46 L261.30,139.67 L261.80,140.88 L262.30,142.09 L262.80,143.30 L263.31,144.51 L263.81,145.71 L264.31,146.92 L264.81,148.12 L265.31,149.32 L265.81,150.52 L266.31,151.72 L266.81,152.91 L267.31,154.10 L267.81,155.28 L268.31,156.47 L268.81,157.65 L269.31,158.82 L269.81,159.99 L270.31,161.16 L270.81,162.32 L271.31,163.48 L271.81,164.63 L272.32,165.78 L272.82,166.93 L273.32,168.06 L273.82,169.20 L274.32,170.32 L274.82,171.44 L275.32,172.56 L275.82,173.66 L276.32,174.77 L276.82,175.86 L277.32,176.95 L277.82,178.03 L278.32,179.11 L278.82,180.18 L279.32,181.24 L279.82,182.29 L280.32,183.34 L280.83,184.38 L281.33,185.41 L281.83,186.43 L282.33,187.45 L282.83,188.46 L283.33,189.46 L283.83,190.45 L284.33,191.43 L284.83,192.41 L285.33,193.38 L285.83,194.33 L286.33,195.28 L286.83,196.23 L287.33,197.16 L287.83,198.08 L288.33,199.00 L288.83,199.91 L289.34,200.81 L289.84,201.69 L290.34,202.58 L290.84,203.45 L291.34,204.31 L291.84,205.16 L292.34,206.01 L292.84,206.84 L293.34,207.67 L293.84,208.49 L294.34,209.29 L294.84,210.09 L295.34,210.88 L295.84,211.66 L296.34,212.44 L296.84,213.20 L297.34,213.95 L297.85,214.70 L298.35,215.43 L298.85,216.16 L299.35,216.87 L299.85,217.58 L300.35,218.28 L300.85,218.97 L301.35,219.65 L301.85,220.32 L302.35,220.98 L302.85,221.64 L303.35,222.28 L303.85,222.92 L304.35,223.55 L304.85,224.16 L305.35,224.77 L305.85,225.37 L306.35,225.97 L306.86,226.55 L307.36,227.13 L307.86,227.69 L308.36,228.25 L308.86,228.80 L309.36,229.34 L309.86,229.87 L310.36,230.40 L310.86,230.91 L311.36,231.42 L311.86,231.92 L312.36,232.42 L312.86,232.90 L313.36,233.38 L313.86,233.85 L314.36,234.31 L314.86,234.76 L315.37,235.21 L315.87,235.64 L316.37,236.07 L316.87,236.50 L317.37,236.91 L317.87,237.32 L318.37,237.72 L318.87,238.12 L319.37,238.51 L319.87,238.89 L320.37,239.26 L320.87,239.63 L321.37,239.99 L321.87,240.34 L322.37,240.69 L322.87,241.03 L323.37,241.37 L323.88,241.69 L324.38,242.02 L324.88,242.33 L325.38,242.64 L325.88,242.94 L326.38,243.24 L326.88,243.53 L327.38,243.82 L327.88,244.10 L328.38,244.38 L328.88,244.64 L329.38,244.91 L329.88,245.17 L330.38,245.42 L330.88,245.67 L331.38,245.91 L331.88,246.15 L332.39,246.38 L332.89,246.61 L333.39,246.83 L333.89,247.05 L334.39,247.26 L334.89,247.47 L335.39,247.68 L335.89,247.88 L336.39,248.07 L336.89,248.27 L337.39,248.45 L337.89,248.64 L338.39,248.82 L338.89,248.99 L339.39,249.16 L339.89,249.33 L340.39,249.49 L340.90,249.65 L341.40,249.81 L341.90,249.96 L342.40,250.11 L342.90,250.25 L343.40,250.39 L343.90,250.53 L344.40,250.67 L344.90,250.80 L345.40,250.93 L345.90,251.05 L346.40,251.18 L346.90,251.30 L347.40,251.41 L347.90,251.53 L348.40,251.64 L348.90,251.75 L349.40,251.85 L349.91,251.96 L350.41,252.06 L350.91,252.15 L351.41,252.25 L351.91,252.34 L352.41,252.43 L352.91,252.52 L353.41,252.61 L353.91,252.69 L354.41,252.77 L354.91,252.85 L355.41,252.93 L355.91,253.00 L356.41,253.08 L356.91,253.15 L357.41,253.22 L357.91,253.28 L358.42,253.35 L358.92,253.41 L359.42,253.48 L359.92,253.54 L360.42,253.60 L360.92,253.65 L361.42,253.71 L361.92,253.76 L362.42,253.81 L362.92,253.87 L363.42,253.92 L363.92,253.96 L364.42,254.01 L364.92,254.06 L365.42,254.10 L365.92,254.14 L366.42,254.18 L366.93,254.23 L367.43,254.26 L367.93,254.30 L368.43,254.34 L368.93,254.38 L369.43,254.41 L369.93,254.44 L370.43,254.48 L370.93,254.51 L371.43,254.54 L371.93,254.57 L372.43,254.60 L372.93,254.63 L373.43,254.65 L373.93,254.68 L374.43,254.71 L374.93,254.73 L375.44,254.76 L375.94,254.78 L376.44,254.80 L376.94,254.82 L377.44,254.85 L377.94,254.87 L378.44,254.89 L378.94,254.91 L379.44,254.92 L379.94,254.94 L380.44,254.96 L380.94,254.98 L381.44,254.99 L381.94,255.01 L382.44,255.02 L382.94,255.04 L383.44,255.05 L383.94,255.07 L384.45,255.08 L384.95,255.09 L385.45,255.11 L385.95,255.12 L386.45,255.13 L386.95,255.14 L387.45,255.15 L387.95,255.16 L388.45,255.17 L388.95,255.18 L389.45,255.19 L389.95,255.20 L390.45,255.21 L390.95,255.22 L391.45,255.23 L391.95,255.24 L392.45,255.25 L392.96,255.25 L393.46,255.26 L393.96,255.27 L394.46,255.27 L394.96,255.28 L395.46,255.29 L395.96,255.29 L396.46,255.30 L396.96,255.30 L397.46,255.31 L397.96,255.31 L398.46,255.32 L398.96,255.32 L399.46,255.33 L399.96,255.33 L400.46,255.34 L400.96,255.34 L401.47,255.35 L401.97,255.35 L402.47,255.35 L402.97,255.36 L403.47,255.36 L403.97,255.36 L404.47,255.37 L404.97,255.37 L405.47,255.37 L405.97,255.38 L406.47,255.38 L406.97,255.38 L407.47,255.38 L407.97,255.39 L408.47,255.39 L408.97,255.39 L409.47,255.39 L409.98,255.40 L410.48,255.40 L410.98,255.40 L411.48,255.40 L411.98,255.40 L412.48,255.41 L412.98,255.41 L413.48,255.41 L413.98,255.41 L414.48,255.41 L414.98,255.41 L415.48,255.41 L415.98,255.42 L416.48,255.42 L416.98,255.42 L417.48,255.42 L417.98,255.42 L418.48,255.42 L418.99,255.42 L419.49,255.42 L419.99,255.43 L420.49,255.43 L420.99,255.43 L421.49,255.43 L421.99,255.43 L422.49,255.43 L422.99,255.43 L423.49,255.43 L423.99,255.43 L424.49,255.43 L424.99,255.43 L425.49,255.43 L425.99,255.43 L426.49,255.43 L426.99,255.43 L427.50,255.44 L428.00,255.44 L428.50,255.44 L429.00,255.44 L429.50,255.44 L430.00,255.44 L430.50,255.44 L431.00,255.44 L431.50,255.44" style="stroke-width: 2; stroke: rgb(68, 128, 194); stroke-opacity: 0.8;"/><path d=" M0.00,255.40 L0.50,255.40 L1.00,255.40 L1.50,255.40 L2.00,255.40 L2.50,255.40 L3.00,255.39 L3.50,255.39 L4.00,255.39 L4.51,255.39 L5.01,255.39 L5.51,255.39 L6.01,255.38 L6.51,255.38 L7.01,255.38 L7.51,255.38 L8.01,255.37 L8.51,255.37 L9.01,255.37 L9.51,255.37 L10.01,255.36 L10.51,255.36 L11.01,255.36 L11.51,255.36 L12.01,255.35 L12.51,255.35 L13.02,255.35 L13.52,255.34 L14.02,255.34 L14.52,255.34 L15.02,255.33 L15.52,255.33 L16.02,255.33 L16.52,255.32 L17.02,255.32 L17.52,255.31 L18.02,255.31 L18.52,255.31 L19.02,255.30 L19.52,255.30 L20.02,255.29 L20.52,255.29 L21.02,255.28 L21.52,255.28 L22.03,255.27 L22.53,255.27 L23.03,255.26 L23.53,255.25 L24.03,255.25 L24.53,255.24 L25.03,255.24 L25.53,255.23 L26.03,255.22 L26.53,255.22 L27.03,255.21 L27.53,255.20 L28.03,255.19 L28.53,255.19 L29.03,255.18 L29.53,255.17 L30.03,255.16 L30.54,255.15 L31.04,255.14 L31.54,255.13 L32.04,255.13 L32.54,255.12 L33.04,255.11 L33.54,255.10 L34.04,255.09 L34.54,255.07 L35.04,255.06 L35.54,255.05 L36.04,255.04 L36.54,255.03 L37.04,255.02 L37.54,255.00 L38.04,254.99 L38.54,254.98 L39.05,254.96 L39.55,254.95 L40.05,254.94 L40.55,254.92 L41.05,254.91 L41.55,254.89 L42.05,254.88 L42.55,254.86 L43.05,254.84 L43.55,254.83 L44.05,254.81 L44.55,254.79 L45.05,254.77 L45.55,254.75 L46.05,254.73 L46.55,254.71 L47.05,254.69 L47.56,254.67 L48.06,254.65 L48.56,254.63 L49.06,254.61 L49.56,254.58 L50.06,254.56 L50.56,254.53 L51.06,254.51 L51.56,254.48 L52.06,254.46 L52.56,254.43 L53.06,254.40 L53.56,254.38 L54.06,254.35 L54.56,254.32 L55.06,254.29 L55.56,254.26 L56.06,254.23 L56.57,254.19 L57.07,254.16 L57.57,254.13 L58.07,254.09 L58.57,254.06 L59.07,254.02 L59.57,253.98 L60.07,253.95 L60.57,253.91 L61.07,253.87 L61.57,253.83 L62.07,253.78 L62.57,253.74 L63.07,253.70 L63.57,253.65 L64.07,253.61 L64.57,253.56 L65.08,253.51 L65.58,253.47 L66.08,253.42 L66.58,253.37 L67.08,253.31 L67.58,253.26 L68.08,253.21 L68.58,253.15 L69.08,253.09 L69.58,253.04 L70.08,252.98 L70.58,252.92 L71.08,252.86 L71.58,252.79 L72.08,252.73 L72.58,252.66 L73.08,252.60 L73.59,252.53 L74.09,252.46 L74.59,252.39 L75.09,252.31 L75.59,252.24 L76.09,252.16 L76.59,252.08 L77.09,252.01 L77.59,251.93 L78.09,251.84 L78.59,251.76 L79.09,251.67 L79.59,251.59 L80.09,251.50 L80.59,251.41 L81.09,251.31 L81.59,251.22 L82.10,251.12 L82.60,251.02 L83.10,250.92 L83.60,250.82 L84.10,250.72 L84.60,250.61 L85.10,250.50 L85.60,250.39 L86.10,250.28 L86.60,250.17 L87.10,250.05 L87.60,249.93 L88.10,249.81 L88.60,249.69 L89.10,249.56 L89.60,249.43 L90.10,249.30 L90.60,249.17 L91.11,249.04 L91.61,248.90 L92.11,248.76 L92.61,248.62 L93.11,248.47 L93.61,248.33 L94.11,248.18 L94.61,248.02 L95.11,247.87 L95.61,247.71 L96.11,247.55 L96.61,247.39 L97.11,247.22 L97.61,247.05 L98.11,246.88 L98.61,246.70 L99.11,246.52 L99.62,246.34 L100.12,246.16 L100.62,245.97 L101.12,245.78 L101.62,245.59 L102.12,245.39 L102.62,245.19 L103.12,244.99 L103.62,244.78 L104.12,244.58 L104.62,244.36 L105.12,244.15 L105.62,243.93 L106.12,243.70 L106.62,243.48 L107.12,243.25 L107.62,243.01 L108.13,242.78 L108.63,242.54 L109.13,242.29 L109.63,242.04 L110.13,241.79 L110.63,241.54 L111.13,241.28 L111.63,241.02 L112.13,240.75 L112.63,240.48 L113.13,240.20 L113.63,239.93 L114.13,239.64 L114.63,239.36 L115.13,239.07 L115.63,238.77 L116.13,238.47 L116.64,238.17 L117.14,237.86 L117.64,237.55 L118.14,237.24 L118.64,236.92 L119.14,236.59 L119.64,236.26 L120.14,235.93 L120.64,235.59 L121.14,235.25 L121.64,234.91 L122.14,234.56 L122.64,234.20 L123.14,233.84 L123.64,233.48 L124.14,233.11 L124.64,232.74 L125.15,232.36 L125.65,231.97 L126.15,231.59 L126.65,231.20 L127.15,230.80 L127.65,230.40 L128.15,229.99 L128.65,229.58 L129.15,229.17 L129.65,228.75 L130.15,228.32 L130.65,227.89 L131.15,227.46 L131.65,227.02 L132.15,226.57 L132.65,226.12 L133.15,225.67 L133.65,225.21 L134.16,224.75 L134.66,224.28 L135.16,223.80 L135.66,223.32 L136.16,222.84 L136.66,222.35 L137.16,221.86 L137.66,221.36 L138.16,220.86 L138.66,220.35 L139.16,219.83 L139.66,219.32 L140.16,218.79 L140.66,218.26 L141.16,217.73 L141.66,217.19 L142.16,216.65 L142.67,216.10 L143.17,215.55 L143.67,214.99 L144.17,214.42 L144.67,213.86 L145.17,213.28 L145.67,212.70 L146.17,212.12 L146.67,211.53 L147.17,210.94 L147.67,210.34 L148.17,209.74 L148.67,209.13 L149.17,208.52 L149.67,207.91 L150.17,207.29 L150.67,206.66 L151.18,206.03 L151.68,205.39 L152.18,204.75 L152.68,204.11 L153.18,203.46 L153.68,202.81 L154.18,202.15 L154.68,201.49 L155.18,200.82 L155.68,200.15 L156.18,199.47 L156.68,198.79 L157.18,198.11 L157.68,197.42 L158.18,196.73 L158.68,196.03 L159.18,195.33 L159.69,194.63 L160.19,193.92 L160.69,193.21 L161.19,192.49 L161.69,191.77 L162.19,191.05 L162.69,190.32 L163.19,189.59 L163.69,188.86 L164.19,188.12 L164.69,187.38 L165.19,186.63 L165.69,185.89 L166.19,185.14 L166.69,184.38 L167.19,183.63 L167.69,182.87 L168.19,182.10 L168.70,181.34 L169.20,180.57 L169.70,179.80 L170.20,179.02 L170.70,178.25 L171.20,177.47 L171.70,176.69 L172.20,175.91 L172.70,175.12 L173.20,174.33 L173.70,173.54 L174.20,172.75 L174.70,171.96 L175.20,171.17 L175.70,170.37 L176.20,169.57 L176.70,168.77 L177.21,167.97 L177.71,167.17 L178.21,166.37 L178.71,165.57 L179.21,164.76 L179.71,163.96 L180.21,163.15 L180.71,162.34 L181.21,161.54 L181.71,160.73 L182.21,159.92 L182.71,159.12 L183.21,158.31 L183.71,157.50 L184.21,156.69 L184.71,155.89 L185.21,155.08 L185.72,154.27 L186.22,153.47 L186.72,152.67 L187.22,151.86 L187.72,151.06 L188.22,150.26 L188.72,149.46 L189.22,148.66 L189.72,147.86 L190.22,147.07 L190.72,146.27 L191.22,145.48 L191.72,144.69 L192.22,143.91 L192.72,143.12 L193.22,142.34 L193.72,141.56 L194.23,140.78 L194.73,140.01 L195.23,139.24 L195.73,138.47 L196.23,137.70 L196.73,136.94 L197.23,136.18 L197.73,135.43 L198.23,134.67 L198.73,133.93 L199.23,133.18 L199.73,132.44 L200.23,131.71 L200.73,130.98 L201.23,130.25 L201.73,129.53 L202.23,128.81 L202.73,128.10 L203.24,127.39 L203.74,126.69 L204.24,125.99 L204.74,125.30 L205.24,124.62 L205.74,123.94 L206.24,123.26 L206.74,122.59 L207.24,121.93 L207.74,121.27 L208.24,120.62 L208.74,119.98 L209.24,119.34 L209.74,118.71 L210.24,118.09 L210.74,117.47 L211.24,116.86 L211.75,116.26 L212.25,115.66 L212.75,115.07 L213.25,114.49 L213.75,113.92 L214.25,113.35 L214.75,112.79 L215.25,112.24 L215.75,111.70 L216.25,111.16 L216.75,110.64 L217.25,110.12 L217.75,109.61 L218.25,109.11 L218.75,108.61 L219.25,108.13 L219.75,107.66 L220.26,107.19 L220.76,106.73 L221.26,106.28 L221.76,105.84 L222.26,105.42 L222.76,104.99 L223.26,104.58 L223.76,104.18 L224.26,103.79 L224.76,103.41 L225.26,103.04 L225.76,102.67 L226.26,102.32 L226.76,101.98 L227.26,101.64 L227.76,101.32 L228.26,101.01 L228.77,100.71 L229.27,100.41 L229.77,100.13 L230.27,99.86 L230.77,99.60 L231.27,99.35 L231.77,99.11 L232.27,98.88 L232.77,98.66 L233.27,98.45 L233.77,98.26 L234.27,98.07 L234.77,97.90 L235.27,97.73 L235.77,97.58 L236.27,97.44 L236.77,97.30 L237.27,97.18 L237.78,97.07 L238.28,96.98 L238.78,96.89 L239.28,96.81 L239.78,96.75 L240.28,96.69 L240.78,96.65 L241.28,96.62 L241.78,96.60 L242.28,96.59 L242.78,96.59 L243.28,96.60 L243.78,96.63 L244.28,96.66 L244.78,96.71 L245.28,96.77 L245.78,96.83 L246.29,96.91 L246.79,97.00 L247.29,97.11 L247.79,97.22 L248.29,97.34 L248.79,97.48 L249.29,97.62 L249.79,97.78 L250.29,97.95 L250.79,98.13 L251.29,98.32 L251.79,98.52 L252.29,98.73 L252.79,98.95 L253.29,99.18 L253.79,99.42 L254.29,99.68 L254.80,99.94 L255.30,100.22 L255.80,100.50 L256.30,100.80 L256.80,101.10 L257.30,101.42 L257.80,101.74 L258.30,102.08 L258.80,102.43 L259.30,102.78 L259.80,103.15 L260.30,103.52 L260.80,103.91 L261.30,104.30 L261.80,104.71 L262.30,105.12 L262.80,105.54 L263.31,105.98 L263.81,106.42 L264.31,106.87 L264.81,107.33 L265.31,107.80 L265.81,108.28 L266.31,108.76 L266.81,109.26 L267.31,109.76 L267.81,110.27 L268.31,110.80 L268.81,111.32 L269.31,111.86 L269.81,112.41 L270.31,112.96 L270.81,113.52 L271.31,114.09 L271.81,114.66 L272.32,115.25 L272.82,115.84 L273.32,116.44 L273.82,117.04 L274.32,117.66 L274.82,118.28 L275.32,118.90 L275.82,119.53 L276.32,120.17 L276.82,120.82 L277.32,121.47 L277.82,122.13 L278.32,122.80 L278.82,123.47 L279.32,124.14 L279.82,124.82 L280.32,125.51 L280.83,126.21 L281.33,126.90 L281.83,127.61 L282.33,128.32 L282.83,129.03 L283.33,129.75 L283.83,130.47 L284.33,131.20 L284.83,131.93 L285.33,132.67 L285.83,133.41 L286.33,134.15 L286.83,134.90 L287.33,135.65 L287.83,136.41 L288.33,137.17 L288.83,137.93 L289.34,138.70 L289.84,139.47 L290.34,140.24 L290.84,141.02 L291.34,141.80 L291.84,142.58 L292.34,143.36 L292.84,144.14 L293.34,144.93 L293.84,145.72 L294.34,146.51 L294.84,147.31 L295.34,148.10 L295.84,148.90 L296.34,149.70 L296.84,150.50 L297.34,151.30 L297.85,152.11 L298.35,152.91 L298.85,153.71 L299.35,154.52 L299.85,155.32 L300.35,156.13 L300.85,156.94 L301.35,157.75 L301.85,158.55 L302.35,159.36 L302.85,160.17 L303.35,160.97 L303.85,161.78 L304.35,162.59 L304.85,163.39 L305.35,164.20 L305.85,165.01 L306.35,165.81 L306.86,166.61 L307.36,167.41 L307.86,168.22 L308.36,169.02 L308.86,169.81 L309.36,170.61 L309.86,171.41 L310.36,172.20 L310.86,172.99 L311.36,173.78 L311.86,174.57 L312.36,175.36 L312.86,176.14 L313.36,176.93 L313.86,177.71 L314.36,178.48 L314.86,179.26 L315.37,180.03 L315.87,180.80 L316.37,181.57 L316.87,182.33 L317.37,183.10 L317.87,183.85 L318.37,184.61 L318.87,185.36 L319.37,186.11 L319.87,186.86 L320.37,187.60 L320.87,188.34 L321.37,189.08 L321.87,189.81 L322.37,190.54 L322.87,191.27 L323.37,191.99 L323.88,192.71 L324.38,193.42 L324.88,194.14 L325.38,194.84 L325.88,195.55 L326.38,196.24 L326.88,196.94 L327.38,197.63 L327.88,198.32 L328.38,199.00 L328.88,199.68 L329.38,200.35 L329.88,201.02 L330.38,201.69 L330.88,202.35 L331.38,203.01 L331.88,203.66 L332.39,204.31 L332.89,204.95 L333.39,205.59 L333.89,206.22 L334.39,206.85 L334.89,207.47 L335.39,208.09 L335.89,208.71 L336.39,209.32 L336.89,209.93 L337.39,210.53 L337.89,211.12 L338.39,211.71 L338.89,212.30 L339.39,212.88 L339.89,213.46 L340.39,214.03 L340.90,214.60 L341.40,215.16 L341.90,215.71 L342.40,216.27 L342.90,216.81 L343.40,217.35 L343.90,217.89 L344.40,218.42 L344.90,218.95 L345.40,219.47 L345.90,219.99 L346.40,220.50 L346.90,221.01 L347.40,221.51 L347.90,222.01 L348.40,222.50 L348.90,222.99 L349.40,223.47 L349.91,223.95 L350.41,224.42 L350.91,224.89 L351.41,225.35 L351.91,225.81 L352.41,226.26 L352.91,226.71 L353.41,227.15 L353.91,227.59 L354.41,228.02 L354.91,228.45 L355.41,228.87 L355.91,229.29 L356.41,229.71 L356.91,230.12 L357.41,230.52 L357.91,230.92 L358.42,231.32 L358.92,231.71 L359.42,232.09 L359.92,232.47 L360.42,232.85 L360.92,233.22 L361.42,233.59 L361.92,233.95 L362.42,234.31 L362.92,234.66 L363.42,235.01 L363.92,235.36 L364.42,235.70 L364.92,236.03 L365.42,236.36 L365.92,236.69 L366.42,237.01 L366.93,237.33 L367.43,237.65 L367.93,237.96 L368.43,238.26 L368.93,238.56 L369.43,238.86 L369.93,239.15 L370.43,239.44 L370.93,239.73 L371.43,240.01 L371.93,240.29 L372.43,240.56 L372.93,240.83 L373.43,241.10 L373.93,241.36 L374.43,241.62 L374.93,241.87 L375.44,242.12 L375.94,242.37 L376.44,242.61 L376.94,242.85 L377.44,243.09 L377.94,243.32 L378.44,243.55 L378.94,243.77 L379.44,243.99 L379.94,244.21 L380.44,244.43 L380.94,244.64 L381.44,244.85 L381.94,245.05 L382.44,245.25 L382.94,245.45 L383.44,245.65 L383.94,245.84 L384.45,246.03 L384.95,246.22 L385.45,246.40 L385.95,246.58 L386.45,246.76 L386.95,246.93 L387.45,247.10 L387.95,247.27 L388.45,247.44 L388.95,247.60 L389.45,247.76 L389.95,247.91 L390.45,248.07 L390.95,248.22 L391.45,248.37 L391.95,248.52 L392.45,248.66 L392.96,248.80 L393.46,248.94 L393.96,249.08 L394.46,249.21 L394.96,249.34 L395.46,249.47 L395.96,249.60 L396.46,249.73 L396.96,249.85 L397.46,249.97 L397.96,250.09 L398.46,250.20 L398.96,250.32 L399.46,250.43 L399.96,250.54 L400.46,250.64 L400.96,250.75 L401.47,250.85 L401.97,250.95 L402.47,251.05 L402.97,251.15 L403.47,251.25 L403.97,251.34 L404.47,251.43 L404.97,251.52 L405.47,251.61 L405.97,251.70 L406.47,251.78 L406.97,251.87 L407.47,251.95 L407.97,252.03 L408.47,252.11 L408.97,252.19 L409.47,252.26 L409.98,252.33 L410.48,252.41 L410.98,252.48 L411.48,252.55 L411.98,252.62 L412.48,252.68 L412.98,252.75 L413.48,252.81 L413.98,252.87 L414.48,252.94 L414.98,253.00 L415.48,253.05 L415.98,253.11 L416.48,253.17 L416.98,253.22 L417.48,253.28 L417.98,253.33 L418.48,253.38 L418.99,253.43 L419.49,253.48 L419.99,253.53 L420.49,253.58 L420.99,253.62 L421.49,253.67 L421.99,253.71 L422.49,253.75 L422.99,253.80 L423.49,253.84 L423.99,253.88 L424.49,253.92 L424.99,253.96 L425.49,253.99 L425.99,254.03 L426.49,254.07 L426.99,254.10 L427.50,254.14 L428.00,254.17 L428.50,254.20 L429.00,254.24 L429.50,254.27 L430.00,254.30 L430.50,254.33 L431.00,254.36 L431.50,254.38" style="stroke-width: 2; stroke: rgb(60, 180, 75); stroke-opacity: 0.8; stroke-dasharray: 7.5, 6;"/></g></g><g class="test-xtl" style="font-family: &quot;Open Sans&quot;, verdana, arial, sans-serif;"><text text-anchor="middle" font-size="11" dominant-baseline="hanging" stroke="none" fill="rgb(50,50,50)" fill-opacity="1" x="54.25375448916608" y="262.44613259668506">-1</text><text text-anchor="middle" font-size="11" dominant-baseline="hanging" stroke="none" fill="rgb(50,50,50)" fill-opacity="1" x="131.3647532120758" y="262.44613259668506">-0.5</text><text text-anchor="middle" font-size="11" dominant-baseline="hanging" stroke="none" fill="rgb(50,50,50)" fill-opacity="1" x="288.7217506578953" y="262.44613259668506">0.5</text><text text-anchor="middle" font-size="11" dominant-baseline="hanging" stroke="none" fill="rgb(50,50,50)" fill-opacity="1" x="365.832749380805" y="262.44613259668506">1</text><text text-anchor="middle" font-size="11" dominant-baseline="hanging" stroke="none" fill="rgb(50,50,50)" fill-opacity="1" x="203.6107519349856" y="260.44613259668506">0</text></g><g class="test-ytl" style="font-family: &quot;Open Sans&quot;, verdana, arial, sans-serif;"><text text-anchor="end" dominant-baseline="middle" font-size="11" stroke="none" fill="rgb(50,50,50)" fill-opacity="1" x="203.61075193498556" y="178.33513387377536">0.5</text><text text-anchor="end" dominant-baseline="middle" font-size="11" stroke="none" fill="rgb(50,50,50)" fill-opacity="1" x="203.61075193498556" y="101.22413515086564">1</text><text text-anchor="end" dominant-baseline="middle" font-size="11" stroke="none" fill="rgb(50,50,50)" fill-opacity="1" x="203.61075193498556" y="24.11313642795588">1.5</text></g><rect class="real" x="1" y="1" width="429.5" height="265" style="fill: transparent; stroke: none;"/></g></g></g><g/></g><g/><g/><g/></svg>
        <svg xmlns="http://www.w3.org/2000/svg" xmlns:xlink="http://www.w3.org/1999/xlink" width="700" height="310" style="width:700px;height:310px;font-family:Asana-Math, Asana;background:transparent;"><g><g><g><text x="136.9921875" y="254" style="white-space:pre;stroke:none;fill:rgb(74,144,226);fill-opacity:1;font-size:15px;font-family:Arial, Helvetica, sans-serif;font-weight:400;font-style:normal;dominant-baseline:text-before-edge;text-decoration:none solid rgb(74, 144, 226);">clean data</text></g></g></g><g><g><g><text x="453.9921875" y="188" style="white-space:pre;stroke:none;fill:rgb(46,185,69);fill-opacity:1;font-size:15px;font-family:Arial, Helvetica, sans-serif;font-weight:400;font-style:normal;dominant-baseline:text-before-edge;text-decoration:none solid rgb(46, 185, 69);">adversarial data</text></g></g></g></svg>
</svg>
